<?xml version="1.0" standalone="no"?>
<!DOCTYPE svg PUBLIC "-//W3C//DTD SVG 20010904//EN"
 "http://www.w3.org/TR/2001/REC-SVG-20010904/DTD/svg10.dtd">
<svg version="1.0" xmlns="http://www.w3.org/2000/svg"
 width="348.000000pt" height="140.000000pt" viewBox="0 0 348.000000 140.000000"
 preserveAspectRatio="xMidYMid meet">

<g transform="translate(0.000000,140.000000) scale(0.100000,-0.100000)"
fill="#06D6A0" stroke="none">
<path d="M122 1224 l3 -76 157 1 157 2 -56 -128 c-71 -165 -223 -548 -252
-635 -24 -72 -35 -248 -16 -248 6 0 68 11 140 24 72 13 183 32 248 41 l117 18
0 83 c0 46 -2 84 -5 84 -2 0 -75 -9 -161 -20 -86 -11 -159 -19 -161 -16 -2 2
1 14 6 27 6 13 46 114 90 224 43 110 113 278 155 373 72 165 76 177 76 248 l0
74 -250 0 -251 0 3 -76z"/>
<path d="M855 1288 c-12 -36 -175 -1013 -175 -1048 0 -12 125 -3 151 11 11 5
19 36 28 101 6 51 15 96 19 99 4 4 52 9 108 13 l101 7 14 -98 14 -98 85 4 c47
2 88 5 91 7 7 4 -55 378 -126 760 -25 133 -45 244 -45 248 0 3 -59 6 -130 6
-96 0 -132 -3 -135 -12z m169 -433 c20 -126 36 -233 36 -237 0 -3 -36 -8 -80
-10 -66 -2 -80 0 -80 12 0 39 75 479 80 473 4 -5 23 -111 44 -238z"/>
<path d="M1380 795 l0 -506 85 3 86 3 2 215 2 215 113 3 112 3 0 69 0 69 -112
3 -113 3 -2 143 -2 142 144 0 145 0 0 70 0 70 -230 0 -230 0 0 -505z"/>
<path d="M1930 796 l0 -503 193 -8 c105 -4 209 -8 230 -9 l39 -1 1 76 2 77
-59 6 c-32 3 -97 6 -142 6 l-84 0 0 430 0 430 -90 0 -90 0 0 -504z"/>
<path d="M2470 780 l0 -520 29 0 c15 0 56 -3 90 -6 l61 -7 0 527 0 526 -90 0
-90 0 0 -520z"/>
<path d="M2753 1283 c3 -10 44 -123 91 -251 l86 -234 -80 -226 c-44 -125 -89
-251 -99 -280 l-19 -52 22 -5 c11 -3 50 -6 84 -8 l64 -2 70 215 71 215 19 -55
c10 -30 42 -136 70 -235 28 -99 54 -183 57 -187 8 -10 172 -41 178 -34 7 6
-63 248 -134 468 l-54 168 91 255 c49 141 90 258 90 260 0 3 -37 5 -82 5 l-83
0 -65 -190 c-35 -104 -67 -187 -70 -184 -3 3 -32 87 -66 187 l-61 182 -93 3
c-85 3 -92 1 -87 -15z"/>
</g>
</svg>
